<?xml version="1.0" encoding="UTF-8"?>
<svg xmlns="http://www.w3.org/2000/svg" xmlns:xlink="http://www.w3.org/1999/xlink" width="381pt" height="445pt" viewBox="0 0 381 445" version="1.1">
<g id="surface1">
<path style=" stroke:none;fill-rule:nonzero;fill:rgb(100%,100%,100%);fill-opacity:1;" d="M 0 0 L 381 0 L 381 441 L 0 441 Z M 0 0 "/>
<path style="fill:none;stroke-width:1;stroke-linecap:butt;stroke-linejoin:miter;stroke:rgb(0%,0%,0%);stroke-opacity:1;stroke-miterlimit:10;" d="M 70 120 L 310 120 L 310 370 L 70 370 Z M 70 120 " transform="matrix(1,0,0,1,0.5,0.5)"/>
<path style="fill:none;stroke-width:1;stroke-linecap:butt;stroke-linejoin:miter;stroke:rgb(0%,0%,0%);stroke-opacity:1;stroke-miterlimit:10;" d="M 200 20 L 300 20 L 300 360 L 200 360 Z M 200 20 " transform="matrix(1,0,0,1,0.5,0.5)"/>
<path style="fill:none;stroke-width:1;stroke-linecap:butt;stroke-linejoin:miter;stroke:rgb(0%,0%,0%);stroke-opacity:1;stroke-miterlimit:10;" d="M 210 30 L 290 30 L 290 110 L 210 110 Z M 210 30 " transform="matrix(1,0,0,1,0.5,0.5)"/>
<path style="fill-rule:nonzero;fill:rgb(100%,100%,100%);fill-opacity:1;stroke-width:1;stroke-linecap:butt;stroke-linejoin:miter;stroke:rgb(0%,0%,0%);stroke-opacity:1;stroke-miterlimit:10;" d="M 270 70 C 270 81.046875 261.046875 90 250 90 C 238.953125 90 230 81.046875 230 70 C 230 58.953125 238.953125 50 250 50 C 261.046875 50 270 58.953125 270 70 Z M 270 70 " transform="matrix(1,0,0,1,0.5,0.5)"/>
<path style="fill:none;stroke-width:1;stroke-linecap:butt;stroke-linejoin:miter;stroke:rgb(0%,0%,0%);stroke-opacity:1;stroke-miterlimit:10;" d="M 316 50 L 344 50 C 347.3125 50 350 52.6875 350 56 L 350 84 C 350 87.3125 347.3125 90 344 90 L 316 90 C 312.6875 90 310 87.3125 310 84 L 310 56 C 310 52.6875 312.6875 50 316 50 Z M 316 50 " transform="matrix(1,0,0,1,0.5,0.5)"/>
<path style="fill-rule:nonzero;fill:rgb(100%,100%,100%);fill-opacity:1;stroke-width:1;stroke-linecap:butt;stroke-linejoin:miter;stroke:rgb(0%,0%,0%);stroke-opacity:1;stroke-miterlimit:10;" d="M 270 160 C 270 171.046875 261.046875 180 250 180 C 238.953125 180 230 171.046875 230 160 C 230 148.953125 238.953125 140 250 140 C 261.046875 140 270 148.953125 270 160 Z M 270 160 " transform="matrix(1,0,0,1,0.5,0.5)"/>
<path style="fill-rule:nonzero;fill:rgb(100%,100%,100%);fill-opacity:1;stroke-width:1;stroke-linecap:butt;stroke-linejoin:miter;stroke:rgb(0%,0%,0%);stroke-opacity:1;stroke-miterlimit:10;" d="M 270 240 C 270 251.046875 261.046875 260 250 260 C 238.953125 260 230 251.046875 230 240 C 230 228.953125 238.953125 220 250 220 C 261.046875 220 270 228.953125 270 240 Z M 270 240 " transform="matrix(1,0,0,1,0.5,0.5)"/>
<path style="fill:none;stroke-width:1;stroke-linecap:butt;stroke-linejoin:miter;stroke:rgb(0%,0%,0%);stroke-opacity:1;stroke-miterlimit:10;" d="M 80 280 L 180 280 L 180 360 L 80 360 Z M 80 280 " transform="matrix(1,0,0,1,0.5,0.5)"/>
<path style="fill:none;stroke-width:1;stroke-linecap:butt;stroke-linejoin:miter;stroke:rgb(0%,0%,0%);stroke-opacity:1;stroke-miterlimit:10;" d="M 326 140 L 354 140 C 357.3125 140 360 142.6875 360 146 L 360 174 C 360 177.3125 357.3125 180 354 180 L 326 180 C 322.6875 180 320 177.3125 320 174 L 320 146 C 320 142.6875 322.6875 140 326 140 Z M 326 140 " transform="matrix(1,0,0,1,0.5,0.5)"/>
<path style="fill:none;stroke-width:1;stroke-linecap:butt;stroke-linejoin:miter;stroke:rgb(0%,0%,0%);stroke-opacity:1;stroke-miterlimit:10;" d="M 326 220 L 354 220 C 357.3125 220 360 222.6875 360 226 L 360 254 C 360 257.3125 357.3125 260 354 260 L 326 260 C 322.6875 260 320 257.3125 320 254 L 320 226 C 320 222.6875 322.6875 220 326 220 Z M 326 220 " transform="matrix(1,0,0,1,0.5,0.5)"/>
<path style="fill-rule:nonzero;fill:rgb(100%,100%,100%);fill-opacity:1;stroke-width:1;stroke-linecap:butt;stroke-linejoin:miter;stroke:rgb(0%,0%,0%);stroke-opacity:1;stroke-miterlimit:10;" d="M 270 320 C 270 331.046875 261.046875 340 250 340 C 238.953125 340 230 331.046875 230 320 C 230 308.953125 238.953125 300 250 300 C 261.046875 300 270 308.953125 270 320 Z M 270 320 " transform="matrix(1,0,0,1,0.5,0.5)"/>
<path style="fill:none;stroke-width:1;stroke-linecap:butt;stroke-linejoin:miter;stroke:rgb(0%,0%,0%);stroke-opacity:1;stroke-miterlimit:10;" d="M 26 220 L 54 220 C 57.3125 220 60 222.6875 60 226 L 60 254 C 60 257.3125 57.3125 260 54 260 L 26 260 C 22.6875 260 20 257.3125 20 254 L 20 226 C 20 222.6875 22.6875 220 26 220 Z M 26 220 " transform="matrix(1,0,0,1,0.5,0.5)"/>
<path style="fill-rule:nonzero;fill:rgb(100%,100%,100%);fill-opacity:1;stroke-width:1;stroke-linecap:butt;stroke-linejoin:miter;stroke:rgb(0%,0%,0%);stroke-opacity:1;stroke-miterlimit:10;" d="M 150 320 C 150 331.046875 141.046875 340 130 340 C 118.953125 340 110 331.046875 110 320 C 110 308.953125 118.953125 300 130 300 C 141.046875 300 150 308.953125 150 320 Z M 150 320 " transform="matrix(1,0,0,1,0.5,0.5)"/>
<path style="fill-rule:nonzero;fill:rgb(100%,100%,100%);fill-opacity:1;stroke-width:1;stroke-linecap:butt;stroke-linejoin:miter;stroke:rgb(0%,0%,0%);stroke-opacity:1;stroke-miterlimit:10;" d="M 150 240 C 150 251.046875 141.046875 260 130 260 C 118.953125 260 110 251.046875 110 240 C 110 228.953125 118.953125 220 130 220 C 141.046875 220 150 228.953125 150 240 Z M 150 240 " transform="matrix(1,0,0,1,0.5,0.5)"/>
<path style="fill:none;stroke-width:1;stroke-linecap:butt;stroke-linejoin:miter;stroke:rgb(0%,0%,0%);stroke-opacity:1;stroke-miterlimit:10;" d="M 250 90 L 250 133.628906 " transform="matrix(1,0,0,1,0.5,0.5)"/>
<path style="fill-rule:nonzero;fill:rgb(0%,0%,0%);fill-opacity:1;stroke-width:1;stroke-linecap:butt;stroke-linejoin:miter;stroke:rgb(0%,0%,0%);stroke-opacity:1;stroke-miterlimit:10;" d="M 250 138.878906 L 246.5 131.878906 L 250 133.628906 L 253.5 131.878906 Z M 250 138.878906 " transform="matrix(1,0,0,1,0.5,0.5)"/>
<path style="fill:none;stroke-width:1;stroke-linecap:butt;stroke-linejoin:miter;stroke:rgb(0%,0%,0%);stroke-opacity:1;stroke-miterlimit:10;" d="M 250 180 L 250 213.628906 " transform="matrix(1,0,0,1,0.5,0.5)"/>
<path style="fill-rule:nonzero;fill:rgb(0%,0%,0%);fill-opacity:1;stroke-width:1;stroke-linecap:butt;stroke-linejoin:miter;stroke:rgb(0%,0%,0%);stroke-opacity:1;stroke-miterlimit:10;" d="M 250 218.878906 L 246.5 211.878906 L 250 213.628906 L 253.5 211.878906 Z M 250 218.878906 " transform="matrix(1,0,0,1,0.5,0.5)"/>
<path style="fill:none;stroke-width:1;stroke-linecap:butt;stroke-linejoin:miter;stroke:rgb(0%,0%,0%);stroke-opacity:1;stroke-miterlimit:10;" d="M 250 260 L 250 293.628906 " transform="matrix(1,0,0,1,0.5,0.5)"/>
<path style="fill-rule:nonzero;fill:rgb(0%,0%,0%);fill-opacity:1;stroke-width:1;stroke-linecap:butt;stroke-linejoin:miter;stroke:rgb(0%,0%,0%);stroke-opacity:1;stroke-miterlimit:10;" d="M 250 298.878906 L 246.5 291.878906 L 250 293.628906 L 253.5 291.878906 Z M 250 298.878906 " transform="matrix(1,0,0,1,0.5,0.5)"/>
<path style="fill:none;stroke-width:1;stroke-linecap:butt;stroke-linejoin:miter;stroke:rgb(0%,0%,0%);stroke-opacity:1;stroke-miterlimit:10;" d="M 130 260 L 130 293.628906 " transform="matrix(1,0,0,1,0.5,0.5)"/>
<path style="fill-rule:nonzero;fill:rgb(0%,0%,0%);fill-opacity:1;stroke-width:1;stroke-linecap:butt;stroke-linejoin:miter;stroke:rgb(0%,0%,0%);stroke-opacity:1;stroke-miterlimit:10;" d="M 130 298.878906 L 126.5 291.878906 L 130 293.628906 L 133.5 291.878906 Z M 130 298.878906 " transform="matrix(1,0,0,1,0.5,0.5)"/>
<path style="fill:none;stroke-width:1;stroke-linecap:butt;stroke-linejoin:miter;stroke:rgb(0%,0%,0%);stroke-opacity:1;stroke-miterlimit:10;" d="M 60 240 L 103.628906 240 " transform="matrix(1,0,0,1,0.5,0.5)"/>
<path style="fill-rule:nonzero;fill:rgb(0%,0%,0%);fill-opacity:1;stroke-width:1;stroke-linecap:butt;stroke-linejoin:miter;stroke:rgb(0%,0%,0%);stroke-opacity:1;stroke-miterlimit:10;" d="M 108.878906 240 L 101.878906 243.5 L 103.628906 240 L 101.878906 236.5 Z M 108.878906 240 " transform="matrix(1,0,0,1,0.5,0.5)"/>
<path style="fill:none;stroke-width:1;stroke-linecap:butt;stroke-linejoin:miter;stroke:rgb(0%,0%,0%);stroke-opacity:1;stroke-miterlimit:10;" d="M 150 240 L 223.628906 240 " transform="matrix(1,0,0,1,0.5,0.5)"/>
<path style="fill-rule:nonzero;fill:rgb(0%,0%,0%);fill-opacity:1;stroke-width:1;stroke-linecap:butt;stroke-linejoin:miter;stroke:rgb(0%,0%,0%);stroke-opacity:1;stroke-miterlimit:10;" d="M 228.878906 240 L 221.878906 243.5 L 223.628906 240 L 221.878906 236.5 Z M 228.878906 240 " transform="matrix(1,0,0,1,0.5,0.5)"/>
<path style="fill:none;stroke-width:1;stroke-linecap:butt;stroke-linejoin:miter;stroke:rgb(0%,0%,0%);stroke-opacity:1;stroke-miterlimit:10;" d="M 320 240 L 276.371094 240 " transform="matrix(1,0,0,1,0.5,0.5)"/>
<path style="fill-rule:nonzero;fill:rgb(0%,0%,0%);fill-opacity:1;stroke-width:1;stroke-linecap:butt;stroke-linejoin:miter;stroke:rgb(0%,0%,0%);stroke-opacity:1;stroke-miterlimit:10;" d="M 271.121094 240 L 278.121094 236.5 L 276.371094 240 L 278.121094 243.5 Z M 271.121094 240 " transform="matrix(1,0,0,1,0.5,0.5)"/>
<path style="fill:none;stroke-width:1;stroke-linecap:butt;stroke-linejoin:miter;stroke:rgb(0%,0%,0%);stroke-opacity:1;stroke-miterlimit:10;" d="M 320 160 L 276.371094 160 " transform="matrix(1,0,0,1,0.5,0.5)"/>
<path style="fill-rule:nonzero;fill:rgb(0%,0%,0%);fill-opacity:1;stroke-width:1;stroke-linecap:butt;stroke-linejoin:miter;stroke:rgb(0%,0%,0%);stroke-opacity:1;stroke-miterlimit:10;" d="M 271.121094 160 L 278.121094 156.5 L 276.371094 160 L 278.121094 163.5 Z M 271.121094 160 " transform="matrix(1,0,0,1,0.5,0.5)"/>
<path style="fill:none;stroke-width:1;stroke-linecap:butt;stroke-linejoin:miter;stroke:rgb(0%,0%,0%);stroke-opacity:1;stroke-miterlimit:10;" d="M 310 70 L 276.371094 70 " transform="matrix(1,0,0,1,0.5,0.5)"/>
<path style="fill-rule:nonzero;fill:rgb(0%,0%,0%);fill-opacity:1;stroke-width:1;stroke-linecap:butt;stroke-linejoin:miter;stroke:rgb(0%,0%,0%);stroke-opacity:1;stroke-miterlimit:10;" d="M 271.121094 70 L 278.121094 66.5 L 276.371094 70 L 278.121094 73.5 Z M 271.121094 70 " transform="matrix(1,0,0,1,0.5,0.5)"/>
<path style="fill:none;stroke-width:1;stroke-linecap:butt;stroke-linejoin:miter;stroke:rgb(0%,0%,0%);stroke-opacity:1;stroke-miterlimit:10;" d="M 176 380 L 204 380 C 207.3125 380 210 382.6875 210 386 L 210 414 C 210 417.3125 207.3125 420 204 420 L 176 420 C 172.6875 420 170 417.3125 170 414 L 170 386 C 170 382.6875 172.6875 380 176 380 Z M 176 380 " transform="matrix(1,0,0,1,0.5,0.5)"/>
<path style="fill:none;stroke-width:1;stroke-linecap:butt;stroke-linejoin:miter;stroke:rgb(0%,0%,0%);stroke-opacity:1;stroke-miterlimit:10;" d="M 170 400 L 140 400 C 133.332031 400 130 396.667969 130 390 L 130 346.371094 " transform="matrix(1,0,0,1,0.5,0.5)"/>
<path style="fill-rule:nonzero;fill:rgb(0%,0%,0%);fill-opacity:1;stroke-width:1;stroke-linecap:butt;stroke-linejoin:miter;stroke:rgb(0%,0%,0%);stroke-opacity:1;stroke-miterlimit:10;" d="M 130 341.121094 L 133.5 348.121094 L 130 346.371094 L 126.5 348.121094 Z M 130 341.121094 " transform="matrix(1,0,0,1,0.5,0.5)"/>
<path style="fill:none;stroke-width:1;stroke-linecap:butt;stroke-linejoin:miter;stroke:rgb(0%,0%,0%);stroke-opacity:1;stroke-miterlimit:10;" d="M 210 400 L 240 400 C 246.667969 400 250 396.667969 250 390 L 250 346.371094 " transform="matrix(1,0,0,1,0.5,0.5)"/>
<path style="fill-rule:nonzero;fill:rgb(0%,0%,0%);fill-opacity:1;stroke-width:1;stroke-linecap:butt;stroke-linejoin:miter;stroke:rgb(0%,0%,0%);stroke-opacity:1;stroke-miterlimit:10;" d="M 250 341.121094 L 253.5 348.121094 L 250 346.371094 L 246.5 348.121094 Z M 250 341.121094 " transform="matrix(1,0,0,1,0.5,0.5)"/>
<path style=" stroke:none;fill-rule:nonzero;fill:rgb(0%,0%,0%);fill-opacity:1;" d="M 88.003906 168.128906 C 85.335938 164.828125 82.378906 159.59375 82.378906 150.398438 C 82.378906 141.308594 85.335938 135.367188 88.003906 132.609375 L 88.003906 131.949219 C 83.746094 135.367188 80.730469 142.328125 80.730469 150.398438 C 80.730469 158.511719 83.746094 164.84375 88.003906 168.847656 Z M 88.003906 168.128906 "/>
<path style=" stroke:none;fill-rule:nonzero;fill:rgb(0%,0%,0%);fill-opacity:1;" d="M 101.542969 132.667969 C 104.210938 135.921875 107.167969 141.1875 107.167969 150.398438 C 107.167969 159.488281 104.210938 165.425781 101.542969 168.1875 L 101.542969 168.847656 C 105.800781 165.425781 108.816406 158.40625 108.816406 150.398438 C 108.816406 142.222656 105.800781 135.953125 101.542969 131.949219 Z M 101.542969 132.667969 "/>
<path style=" stroke:none;fill-rule:nonzero;fill:rgb(0%,0%,0%);fill-opacity:1;" d="M 100.90625 134.203125 L 97.933594 134.203125 L 97.933594 134.445312 C 98.789062 134.519531 98.96875 134.671875 98.96875 135.210938 C 98.96875 135.390625 98.941406 135.554688 98.851562 135.871094 L 97.261719 141.691406 L 94.15625 134.203125 L 91.753906 134.203125 L 91.753906 134.445312 C 92.460938 134.445312 92.820312 134.730469 93.046875 135.253906 L 91.289062 141.480469 C 90.75 143.398438 90.539062 143.640625 89.699219 143.761719 L 89.699219 144 L 92.671875 144 L 92.671875 143.761719 C 91.890625 143.699219 91.621094 143.535156 91.621094 143.113281 C 91.621094 142.921875 91.664062 142.621094 91.753906 142.304688 L 93.464844 135.976562 L 96.914062 144.226562 L 97.183594 144.226562 L 99.375 136.621094 C 99.929688 134.683594 99.960938 134.65625 100.90625 134.445312 Z M 100.90625 134.203125 "/>
<path style=" stroke:none;fill-rule:nonzero;fill:rgb(0%,0%,0%);fill-opacity:1;" d="M 98.109375 161.945312 L 97.898438 161.855469 C 97.40625 162.695312 97.089844 162.859375 96.460938 162.859375 L 92.949219 162.859375 L 95.425781 160.21875 C 96.761719 158.808594 97.34375 157.683594 97.34375 156.5 C 97.34375 155.015625 96.265625 153.859375 94.570312 153.859375 C 92.726562 153.859375 91.765625 155.089844 91.449219 156.84375 L 91.765625 156.921875 C 92.363281 155.449219 92.890625 154.96875 93.96875 154.96875 C 95.246094 154.96875 96.054688 155.71875 96.054688 157.085938 C 96.054688 158.359375 95.515625 159.5 94.105469 160.984375 L 91.433594 163.820312 L 91.433594 164 L 97.300781 164 Z M 98.109375 161.945312 "/>
<path style=" stroke:none;fill-rule:nonzero;fill:rgb(0%,0%,0%);fill-opacity:1;" d="M 294.976562 343.203125 L 292.003906 343.203125 L 292.003906 343.445312 C 292.800781 343.519531 293.054688 343.683594 293.054688 344.136719 C 293.054688 344.269531 292.949219 344.796875 292.710938 345.679688 L 291.75 349.175781 C 291.074219 351.636719 290.144531 352.65625 288.449219 352.65625 C 287.28125 352.65625 286.378906 351.949219 286.378906 350.886719 C 286.378906 350.554688 286.574219 349.625 286.980469 348.199219 L 287.925781 344.808594 C 288.210938 343.773438 288.464844 343.550781 289.484375 343.445312 L 289.484375 343.203125 L 285.40625 343.203125 L 285.40625 343.445312 C 286.335938 343.476562 286.605469 343.671875 286.605469 344.058594 C 286.605469 344.238281 286.546875 344.464844 286.46875 344.734375 L 285.691406 347.570312 C 285.300781 348.996094 285.03125 350 285.03125 350.808594 C 285.03125 352.234375 286.378906 353.269531 288.34375 353.269531 C 289.320312 353.269531 290.070312 353.046875 290.714844 352.488281 C 291.359375 351.949219 291.839844 351.078125 292.171875 349.953125 L 293.414062 345.679688 C 293.984375 343.730469 294.046875 343.65625 294.976562 343.445312 Z M 294.976562 343.203125 "/>
<path style=" stroke:none;fill-rule:nonzero;fill:rgb(0%,0%,0%);fill-opacity:1;" d="M 284.40625 93.203125 L 281.433594 93.203125 L 281.433594 93.445312 C 282.289062 93.519531 282.46875 93.671875 282.46875 94.210938 C 282.46875 94.390625 282.441406 94.554688 282.351562 94.871094 L 280.761719 100.691406 L 277.65625 93.203125 L 275.253906 93.203125 L 275.253906 93.445312 C 275.960938 93.445312 276.320312 93.730469 276.546875 94.253906 L 274.789062 100.480469 C 274.25 102.398438 274.039062 102.640625 273.199219 102.761719 L 273.199219 103 L 276.171875 103 L 276.171875 102.761719 C 275.390625 102.699219 275.121094 102.535156 275.121094 102.113281 C 275.121094 101.921875 275.164062 101.621094 275.253906 101.304688 L 276.964844 94.976562 L 280.414062 103.226562 L 280.683594 103.226562 L 282.875 95.621094 C 283.429688 93.683594 283.460938 93.65625 284.40625 93.445312 Z M 284.40625 93.203125 "/>
<path style=" stroke:none;fill-rule:nonzero;fill:rgb(0%,0%,0%);fill-opacity:1;" d="M 241.480469 63.203125 L 241.480469 63.445312 C 242.109375 63.535156 242.171875 63.550781 242.335938 63.65625 C 242.441406 63.730469 242.546875 63.910156 242.546875 64.074219 C 242.546875 64.328125 242.46875 64.613281 242.363281 65.019531 L 240.578125 71.484375 C 240.339844 72.371094 240.128906 72.65625 239.304688 72.761719 L 239.304688 73 L 242.949219 73 L 242.949219 72.761719 C 242.09375 72.671875 241.945312 72.503906 241.945312 72.054688 C 241.945312 71.90625 241.976562 71.695312 242.140625 71.109375 L 242.964844 68.066406 L 243.953125 68.140625 L 245.800781 73 L 248.003906 73 L 248.003906 72.761719 C 247.328125 72.761719 247.03125 72.414062 246.699219 71.53125 L 245.363281 68.003906 C 246.371094 67.78125 246.863281 67.601562 247.328125 67.238281 C 247.945312 66.773438 248.320312 66.039062 248.320312 65.320312 C 248.320312 64.046875 247.238281 63.203125 245.261719 63.203125 Z M 244.089844 64.105469 C 244.164062 63.820312 244.480469 63.65625 244.945312 63.65625 C 246.113281 63.65625 246.746094 64.300781 246.746094 65.335938 C 246.746094 66.730469 245.695312 67.585938 243.910156 67.585938 C 243.640625 67.585938 243.519531 67.570312 243.144531 67.511719 Z M 244.089844 64.105469 "/>
<path style=" stroke:none;fill-rule:nonzero;fill:rgb(0%,0%,0%);fill-opacity:1;" d="M 253.101562 73.828125 C 253.03125 73.921875 252.960938 74.011719 252.890625 74.089844 C 252.601562 74.460938 252.421875 74.621094 252.28125 74.621094 C 252.160156 74.621094 252.121094 74.53125 252.121094 74.441406 C 252.121094 74.359375 252.160156 74.191406 252.261719 73.828125 L 252.820312 71.800781 C 252.878906 71.589844 252.921875 71.378906 252.921875 71.199219 C 252.921875 70.839844 252.699219 70.589844 252.269531 70.589844 C 251.628906 70.589844 250.960938 71.191406 249.960938 72.789062 L 250.628906 70.609375 L 250.589844 70.589844 C 250.058594 70.699219 249.78125 70.738281 248.96875 70.898438 L 248.96875 71.058594 C 249.480469 71.070312 249.621094 71.128906 249.621094 71.328125 C 249.621094 71.390625 249.609375 71.449219 249.601562 71.5 L 248.640625 75 L 249.390625 75 C 249.859375 73.421875 249.941406 73.191406 250.390625 72.519531 C 251.019531 71.589844 251.46875 71.101562 251.871094 71.101562 C 252.019531 71.101562 252.109375 71.210938 252.109375 71.390625 C 252.109375 71.511719 252.050781 71.871094 251.96875 72.179688 L 251.53125 73.800781 C 251.390625 74.320312 251.371094 74.449219 251.371094 74.550781 C 251.371094 74.929688 251.589844 75.089844 251.839844 75.089844 C 252.308594 75.089844 252.558594 74.890625 253.238281 73.960938 Z M 253.101562 73.828125 "/>
<path style=" stroke:none;fill-rule:nonzero;fill:rgb(0%,0%,0%);fill-opacity:1;" d="M 258.109375 73.808594 C 257.601562 74.480469 257.441406 74.621094 257.28125 74.621094 C 257.210938 74.621094 257.171875 74.558594 257.171875 74.449219 C 257.171875 74.328125 257.308594 73.859375 257.359375 73.671875 L 258.148438 70.679688 L 257.410156 70.679688 C 256.921875 72.019531 256.78125 72.398438 256.308594 73.109375 C 255.691406 74.050781 255.230469 74.578125 254.890625 74.578125 C 254.738281 74.578125 254.691406 74.480469 254.691406 74.328125 C 254.691406 74.289062 254.710938 74.199219 254.71875 74.171875 L 255.609375 70.621094 L 255.570312 70.589844 C 255 70.71875 254.640625 70.789062 254.070312 70.859375 L 254.070312 71 C 254.449219 71 254.480469 71.011719 254.570312 71.058594 C 254.628906 71.089844 254.679688 71.171875 254.679688 71.238281 C 254.679688 71.320312 254.621094 71.578125 254.539062 71.910156 L 254.191406 73.300781 C 254.011719 74.03125 253.921875 74.390625 253.921875 74.578125 C 253.921875 74.949219 254.101562 75.109375 254.449219 75.109375 C 255.160156 75.109375 255.660156 74.578125 256.839844 72.640625 C 256.519531 73.71875 256.390625 74.390625 256.390625 74.609375 C 256.390625 74.921875 256.570312 75.089844 256.871094 75.089844 C 257.339844 75.089844 257.601562 74.890625 258.25 73.898438 Z M 258.109375 73.808594 "/>
<path style=" stroke:none;fill-rule:nonzero;fill:rgb(0%,0%,0%);fill-opacity:1;" d="M 333.539062 66.078125 L 329.476562 66.078125 C 327.960938 66.078125 327.179688 66.648438 326.371094 68.015625 L 326.609375 68.015625 C 327.269531 67.203125 327.675781 67.191406 328.453125 67.191406 L 328.546875 67.191406 L 327.316406 70.324219 C 327.164062 70.714844 326.863281 71.210938 326.234375 71.375 C 325.859375 71.480469 325.785156 71.886719 325.785156 72.109375 C 325.785156 72.46875 326.144531 72.769531 326.535156 72.769531 C 326.699219 72.769531 326.910156 72.710938 327.074219 72.589844 C 328.289062 71.628906 328.679688 69.019531 329.355469 67.191406 L 330.914062 67.191406 L 329.773438 70.339844 C 329.671875 70.625 329.519531 71.195312 329.519531 71.539062 C 329.519531 72.125 329.761719 72.664062 330.40625 72.664062 C 331.53125 72.664062 332.234375 71.464844 332.460938 70.535156 L 332.21875 70.535156 C 331.859375 71.34375 331.453125 71.449219 331.15625 71.449219 C 330.839844 71.449219 330.691406 71.164062 330.691406 70.820312 C 330.691406 70.519531 331.484375 67.941406 331.695312 67.191406 L 333.226562 67.191406 Z M 333.539062 66.078125 "/>
<path style=" stroke:none;fill-rule:nonzero;fill:rgb(0%,0%,0%);fill-opacity:1;" d="M 245.496094 153.203125 L 237.515625 153.203125 L 236.886719 155.53125 L 237.15625 155.589844 C 237.875 153.96875 238.355469 153.730469 240.726562 153.730469 L 238.578125 161.636719 C 238.355469 162.445312 238.011719 162.671875 236.976562 162.761719 L 236.976562 163 L 241.296875 163 L 241.296875 162.761719 L 240.769531 162.714844 C 240.15625 162.65625 239.976562 162.535156 239.976562 162.070312 C 239.976562 161.738281 240.09375 161.394531 240.183594 161.078125 L 242.238281 153.730469 L 243.109375 153.730469 C 244.085938 153.730469 244.625 154.148438 244.625 154.945312 C 244.625 155.140625 244.609375 155.378906 244.578125 155.636719 L 244.835938 155.664062 Z M 245.496094 153.203125 "/>
<path style=" stroke:none;fill-rule:nonzero;fill:rgb(0%,0%,0%);fill-opacity:1;" d="M 248.601562 163.828125 C 248.53125 163.921875 248.460938 164.011719 248.390625 164.089844 C 248.101562 164.460938 247.921875 164.621094 247.78125 164.621094 C 247.660156 164.621094 247.621094 164.53125 247.621094 164.441406 C 247.621094 164.359375 247.660156 164.191406 247.761719 163.828125 L 248.320312 161.800781 C 248.378906 161.589844 248.421875 161.378906 248.421875 161.199219 C 248.421875 160.839844 248.199219 160.589844 247.769531 160.589844 C 247.128906 160.589844 246.460938 161.191406 245.460938 162.789062 L 246.128906 160.609375 L 246.089844 160.589844 C 245.558594 160.699219 245.28125 160.738281 244.46875 160.898438 L 244.46875 161.058594 C 244.980469 161.070312 245.121094 161.128906 245.121094 161.328125 C 245.121094 161.390625 245.109375 161.449219 245.101562 161.5 L 244.140625 165 L 244.890625 165 C 245.359375 163.421875 245.441406 163.191406 245.890625 162.519531 C 246.519531 161.589844 246.96875 161.101562 247.371094 161.101562 C 247.519531 161.101562 247.609375 161.210938 247.609375 161.390625 C 247.609375 161.511719 247.550781 161.871094 247.46875 162.179688 L 247.03125 163.800781 C 246.890625 164.320312 246.871094 164.449219 246.871094 164.550781 C 246.871094 164.929688 247.089844 165.089844 247.339844 165.089844 C 247.808594 165.089844 248.058594 164.890625 248.738281 163.960938 Z M 248.601562 163.828125 "/>
<path style=" stroke:none;fill-rule:nonzero;fill:rgb(0%,0%,0%);fill-opacity:1;" d="M 256.039062 163.949219 L 255.890625 163.828125 L 255.679688 164.089844 C 255.378906 164.460938 255.199219 164.621094 255.03125 164.621094 C 254.949219 164.621094 254.910156 164.570312 254.910156 164.460938 C 254.910156 164.421875 254.949219 164.238281 255.011719 164.011719 L 255.691406 161.5 C 255.699219 161.449219 255.71875 161.289062 255.71875 161.21875 C 255.71875 160.859375 255.511719 160.589844 255.140625 160.589844 C 254.941406 160.589844 254.75 160.640625 254.511719 160.789062 C 254.019531 161.101562 253.609375 161.601562 252.910156 162.710938 C 253.179688 161.941406 253.308594 161.378906 253.308594 161.191406 C 253.308594 160.828125 253.109375 160.589844 252.710938 160.589844 C 252.101562 160.589844 251.398438 161.25 250.511719 162.699219 L 251.089844 160.609375 L 251.058594 160.589844 L 249.441406 160.898438 L 249.441406 161.058594 L 249.691406 161.058594 C 249.960938 161.058594 250.101562 161.128906 250.101562 161.28125 C 250.101562 161.398438 249.949219 162.230469 249.550781 163.558594 L 249.121094 165 L 249.871094 165 C 250.351562 163.421875 250.488281 163.058594 250.828125 162.539062 C 251.390625 161.691406 251.980469 161.109375 252.320312 161.109375 C 252.449219 161.109375 252.539062 161.199219 252.539062 161.359375 C 252.539062 161.488281 252.300781 162.550781 251.859375 164.070312 L 251.589844 165 L 252.339844 165 C 252.730469 163.460938 252.929688 162.96875 253.421875 162.28125 C 253.921875 161.578125 254.429688 161.109375 254.730469 161.109375 C 254.839844 161.109375 254.929688 161.199219 254.929688 161.320312 C 254.929688 161.371094 254.910156 161.5 254.859375 161.699219 L 254.28125 163.96875 C 254.179688 164.359375 254.148438 164.53125 254.148438 164.628906 C 254.148438 164.929688 254.289062 165.089844 254.550781 165.089844 C 255.019531 165.089844 255.460938 164.761719 255.988281 164.019531 Z M 256.039062 163.949219 "/>
<path style=" stroke:none;fill-rule:nonzero;fill:rgb(0%,0%,0%);fill-opacity:1;" d="M 260.828125 163.808594 C 260.320312 164.480469 260.160156 164.621094 260 164.621094 C 259.929688 164.621094 259.890625 164.558594 259.890625 164.449219 C 259.890625 164.328125 260.027344 163.859375 260.078125 163.671875 L 260.867188 160.679688 L 260.128906 160.679688 C 259.640625 162.019531 259.5 162.398438 259.027344 163.109375 C 258.410156 164.050781 257.949219 164.578125 257.609375 164.578125 C 257.457031 164.578125 257.410156 164.480469 257.410156 164.328125 C 257.410156 164.289062 257.429688 164.199219 257.4375 164.171875 L 258.328125 160.621094 L 258.289062 160.589844 C 257.71875 160.71875 257.359375 160.789062 256.789062 160.859375 L 256.789062 161 C 257.167969 161 257.199219 161.011719 257.289062 161.058594 C 257.347656 161.089844 257.398438 161.171875 257.398438 161.238281 C 257.398438 161.320312 257.339844 161.578125 257.257812 161.910156 L 256.910156 163.300781 C 256.730469 164.03125 256.640625 164.390625 256.640625 164.578125 C 256.640625 164.949219 256.820312 165.109375 257.167969 165.109375 C 257.878906 165.109375 258.378906 164.578125 259.558594 162.640625 C 259.238281 163.71875 259.109375 164.390625 259.109375 164.609375 C 259.109375 164.921875 259.289062 165.089844 259.589844 165.089844 C 260.058594 165.089844 260.320312 164.890625 260.96875 163.898438 Z M 260.828125 163.808594 "/>
<path style=" stroke:none;fill-rule:nonzero;fill:rgb(0%,0%,0%);fill-opacity:1;" d="M 245.175781 235.203125 L 237.71875 235.203125 L 237.71875 235.445312 C 238.710938 235.535156 238.859375 235.625 238.859375 236.046875 C 238.859375 236.285156 238.816406 236.585938 238.710938 236.960938 L 236.863281 243.589844 C 236.640625 244.371094 236.488281 244.699219 235.621094 244.761719 L 235.621094 245 L 239.386719 245 L 239.386719 244.761719 C 238.5 244.699219 238.230469 244.535156 238.230469 244.175781 C 238.230469 243.949219 238.335938 243.648438 238.441406 243.273438 L 239.324219 240.078125 C 239.878906 240.109375 240.238281 240.125 240.570312 240.125 C 241.273438 240.125 241.695312 240.183594 241.695312 240.785156 C 241.695312 241.023438 241.664062 241.234375 241.574219 241.699219 L 241.828125 241.773438 L 242.96875 238.25 L 242.699219 238.175781 C 242.023438 239.523438 241.980469 239.554688 239.460938 239.585938 L 240.421875 236.179688 C 240.523438 235.789062 240.75 235.699219 241.441406 235.699219 C 244.078125 235.699219 244.425781 235.894531 244.425781 236.988281 C 244.425781 237.078125 244.425781 237.15625 244.378906 237.484375 L 244.695312 237.515625 Z M 245.175781 235.203125 "/>
<path style=" stroke:none;fill-rule:nonzero;fill:rgb(0%,0%,0%);fill-opacity:1;" d="M 243.136719 231.429688 C 242.882812 231.984375 242.6875 232.195312 242.34375 232.195312 C 242.042969 232.195312 241.832031 232.105469 241.1875 231.773438 C 240.828125 231.59375 240.46875 231.503906 240.136719 231.503906 C 239.386719 231.503906 238.847656 232.046875 238.621094 233.019531 L 239.058594 233.019531 C 239.222656 232.554688 239.476562 232.328125 239.820312 232.328125 C 240.09375 232.328125 240.210938 232.390625 240.78125 232.660156 C 241.398438 232.960938 241.621094 233.019531 241.996094 233.019531 C 242.820312 233.019531 243.257812 232.570312 243.570312 231.429688 Z M 243.136719 231.429688 "/>
<path style=" stroke:none;fill-rule:nonzero;fill:rgb(0%,0%,0%);fill-opacity:1;" d="M 249.101562 245.828125 C 249.03125 245.921875 248.960938 246.011719 248.890625 246.089844 C 248.601562 246.460938 248.421875 246.621094 248.28125 246.621094 C 248.160156 246.621094 248.121094 246.53125 248.121094 246.441406 C 248.121094 246.359375 248.160156 246.191406 248.261719 245.828125 L 248.820312 243.800781 C 248.878906 243.589844 248.921875 243.378906 248.921875 243.199219 C 248.921875 242.839844 248.699219 242.589844 248.269531 242.589844 C 247.628906 242.589844 246.960938 243.191406 245.960938 244.789062 L 246.628906 242.609375 L 246.589844 242.589844 C 246.058594 242.699219 245.78125 242.738281 244.96875 242.898438 L 244.96875 243.058594 C 245.480469 243.070312 245.621094 243.128906 245.621094 243.328125 C 245.621094 243.390625 245.609375 243.449219 245.601562 243.5 L 244.640625 247 L 245.390625 247 C 245.859375 245.421875 245.941406 245.191406 246.390625 244.519531 C 247.019531 243.589844 247.46875 243.101562 247.871094 243.101562 C 248.019531 243.101562 248.109375 243.210938 248.109375 243.390625 C 248.109375 243.511719 248.050781 243.871094 247.96875 244.179688 L 247.53125 245.800781 C 247.390625 246.320312 247.371094 246.449219 247.371094 246.550781 C 247.371094 246.929688 247.589844 247.089844 247.839844 247.089844 C 248.308594 247.089844 248.558594 246.890625 249.238281 245.960938 Z M 249.101562 245.828125 "/>
<path style=" stroke:none;fill-rule:nonzero;fill:rgb(0%,0%,0%);fill-opacity:1;" d="M 256.539062 245.949219 L 256.390625 245.828125 L 256.179688 246.089844 C 255.878906 246.460938 255.699219 246.621094 255.53125 246.621094 C 255.449219 246.621094 255.410156 246.570312 255.410156 246.460938 C 255.410156 246.421875 255.449219 246.238281 255.511719 246.011719 L 256.191406 243.5 C 256.199219 243.449219 256.21875 243.289062 256.21875 243.21875 C 256.21875 242.859375 256.011719 242.589844 255.640625 242.589844 C 255.441406 242.589844 255.25 242.640625 255.011719 242.789062 C 254.519531 243.101562 254.109375 243.601562 253.410156 244.710938 C 253.679688 243.941406 253.808594 243.378906 253.808594 243.191406 C 253.808594 242.828125 253.609375 242.589844 253.210938 242.589844 C 252.601562 242.589844 251.898438 243.25 251.011719 244.699219 L 251.589844 242.609375 L 251.558594 242.589844 L 249.941406 242.898438 L 249.941406 243.058594 L 250.191406 243.058594 C 250.460938 243.058594 250.601562 243.128906 250.601562 243.28125 C 250.601562 243.398438 250.449219 244.230469 250.050781 245.558594 L 249.621094 247 L 250.371094 247 C 250.851562 245.421875 250.988281 245.058594 251.328125 244.539062 C 251.890625 243.691406 252.480469 243.109375 252.820312 243.109375 C 252.949219 243.109375 253.039062 243.199219 253.039062 243.359375 C 253.039062 243.488281 252.800781 244.550781 252.359375 246.070312 L 252.089844 247 L 252.839844 247 C 253.230469 245.460938 253.429688 244.96875 253.921875 244.28125 C 254.421875 243.578125 254.929688 243.109375 255.230469 243.109375 C 255.339844 243.109375 255.429688 243.199219 255.429688 243.320312 C 255.429688 243.371094 255.410156 243.5 255.359375 243.699219 L 254.78125 245.96875 C 254.679688 246.359375 254.648438 246.53125 254.648438 246.628906 C 254.648438 246.929688 254.789062 247.089844 255.050781 247.089844 C 255.519531 247.089844 255.960938 246.761719 256.488281 246.019531 Z M 256.539062 245.949219 "/>
<path style=" stroke:none;fill-rule:nonzero;fill:rgb(0%,0%,0%);fill-opacity:1;" d="M 261.328125 245.808594 C 260.820312 246.480469 260.660156 246.621094 260.5 246.621094 C 260.429688 246.621094 260.390625 246.558594 260.390625 246.449219 C 260.390625 246.328125 260.527344 245.859375 260.578125 245.671875 L 261.367188 242.679688 L 260.628906 242.679688 C 260.140625 244.019531 260 244.398438 259.527344 245.109375 C 258.910156 246.050781 258.449219 246.578125 258.109375 246.578125 C 257.957031 246.578125 257.910156 246.480469 257.910156 246.328125 C 257.910156 246.289062 257.929688 246.199219 257.9375 246.171875 L 258.828125 242.621094 L 258.789062 242.589844 C 258.21875 242.71875 257.859375 242.789062 257.289062 242.859375 L 257.289062 243 C 257.667969 243 257.699219 243.011719 257.789062 243.058594 C 257.847656 243.089844 257.898438 243.171875 257.898438 243.238281 C 257.898438 243.320312 257.839844 243.578125 257.757812 243.910156 L 257.410156 245.300781 C 257.230469 246.03125 257.140625 246.390625 257.140625 246.578125 C 257.140625 246.949219 257.320312 247.109375 257.667969 247.109375 C 258.378906 247.109375 258.878906 246.578125 260.058594 244.640625 C 259.738281 245.71875 259.609375 246.390625 259.609375 246.609375 C 259.609375 246.921875 259.789062 247.089844 260.089844 247.089844 C 260.558594 247.089844 260.820312 246.890625 261.46875 245.898438 Z M 261.328125 245.808594 "/>
<path style=" stroke:none;fill-rule:nonzero;fill:rgb(0%,0%,0%);fill-opacity:1;" d="M 175.035156 342.703125 L 171.316406 342.703125 L 171.316406 342.945312 C 172.15625 343.003906 172.394531 343.214844 172.394531 343.574219 C 172.394531 343.816406 172.289062 344.128906 172.183594 344.519531 L 171.496094 346.980469 L 167.21875 346.980469 L 168.03125 344.011719 C 168.226562 343.289062 168.628906 343.003906 169.53125 342.945312 L 169.53125 342.703125 L 165.464844 342.703125 L 165.464844 342.945312 C 166.410156 343.035156 166.621094 343.125 166.621094 343.558594 C 166.621094 343.785156 166.546875 344.113281 166.441406 344.519531 L 164.671875 350.96875 C 164.398438 351.945312 164.21875 352.171875 163.378906 352.261719 L 163.378906 352.5 L 167.054688 352.5 L 167.054688 352.261719 C 166.15625 352.140625 166.003906 352.035156 166.003906 351.601562 C 166.003906 351.496094 166.019531 351.375 166.050781 351.269531 L 167.039062 347.609375 L 171.316406 347.609375 L 170.355469 351.105469 C 170.160156 351.839844 169.890625 352.183594 168.824219 352.261719 L 168.824219 352.5 L 172.933594 352.5 L 172.933594 352.261719 C 171.960938 352.15625 171.75 352.050781 171.75 351.628906 C 171.75 351.511719 171.765625 351.390625 171.796875 351.269531 L 173.773438 344.054688 C 174.015625 343.183594 174.179688 343.09375 175.035156 342.945312 Z M 175.035156 342.703125 "/>
<path style=" stroke:none;fill-rule:nonzero;fill:rgb(0%,0%,0%);fill-opacity:1;" d="M 337.71875 159.078125 C 337.886719 158.554688 338.304688 157.234375 338.304688 156.605469 C 338.304688 156.230469 338.171875 155.929688 337.703125 155.929688 C 337.253906 155.929688 336.683594 156.304688 336.25 156.84375 C 336.023438 157.113281 335.859375 157.386719 335.816406 157.460938 L 335.996094 157.609375 C 336.21875 157.339844 336.671875 156.738281 336.941406 156.738281 C 337.105469 156.738281 337.148438 156.859375 337.148438 156.996094 C 337.148438 157.203125 337.046875 157.550781 336.941406 157.925781 L 335.710938 162.5 L 336.835938 162.5 L 337.316406 160.910156 C 337.914062 158.898438 339.773438 156.648438 340.539062 156.648438 C 340.898438 156.648438 340.914062 156.949219 340.914062 157.175781 C 340.914062 157.371094 340.75 158.105469 340.703125 158.253906 L 339.578125 162.363281 C 339.160156 163.894531 339.085938 164.539062 339.085938 164.914062 C 339.085938 165.183594 339.113281 165.410156 339.25 165.574219 L 340.34375 165.574219 C 340.300781 165.46875 340.226562 165.273438 340.226562 165.066406 C 340.226562 164.601562 340.421875 163.429688 340.675781 162.5 L 341.980469 157.683594 C 342.085938 157.28125 342.128906 157.070312 342.128906 156.738281 C 342.128906 156.15625 341.636719 155.886719 341.066406 155.886719 C 340.226562 155.886719 339.191406 156.785156 337.75 159.09375 Z M 337.71875 159.078125 "/>
<path style=" stroke:none;fill-rule:nonzero;fill:rgb(0%,0%,0%);fill-opacity:1;" d="M 342.300781 235.886719 L 342.058594 235.886719 C 342.015625 236.019531 341.925781 236.140625 341.746094 236.140625 C 341.339844 236.140625 341.113281 235.886719 340.394531 235.886719 C 338.265625 235.886719 336.449219 238.269531 336.449219 240.398438 C 336.449219 241.644531 337.15625 242.664062 338.519531 242.664062 C 340.019531 242.664062 340.679688 242.066406 341.519531 241.046875 L 341.28125 240.894531 C 340.425781 241.75 339.914062 242.125 339.074219 242.125 C 338.191406 242.125 337.738281 241.421875 337.738281 240.324219 C 337.738281 239.964844 337.769531 239.679688 337.890625 239.304688 L 340.589844 239.304688 L 340.679688 238.824219 L 337.996094 238.824219 C 338.234375 237.773438 339.269531 236.214844 340.304688 236.214844 C 341.414062 236.214844 341.683594 237.128906 341.789062 237.820312 L 342.03125 237.820312 Z M 342.300781 235.886719 "/>
<path style=" stroke:none;fill-rule:nonzero;fill:rgb(0%,0%,0%);fill-opacity:1;" d="M 237.949219 315.203125 L 237.949219 315.445312 C 238.894531 315.519531 239.105469 315.625 239.105469 316.058594 C 239.105469 316.285156 239.046875 316.644531 238.941406 317.019531 L 237.125 323.558594 C 236.871094 324.488281 236.703125 324.640625 235.878906 324.761719 L 235.878906 325 L 239.960938 325 C 242.390625 325 244.085938 324.011719 244.085938 322 C 244.085938 320.933594 243.484375 320.140625 242.195312 319.75 L 242.195312 319.734375 C 242.839844 319.601562 243.394531 319.464844 243.859375 319.148438 C 244.398438 318.789062 244.820312 318.265625 244.820312 317.453125 C 244.820312 315.96875 243.785156 315.203125 241.699219 315.203125 Z M 239.71875 319.554688 L 240.664062 316.195312 C 240.816406 315.65625 240.964844 315.65625 241.550781 315.65625 C 242.765625 315.65625 243.304688 316.164062 243.304688 317.273438 C 243.304688 318.761719 242.253906 319.554688 240.289062 319.554688 Z M 239.570312 320.035156 C 240.515625 320.035156 241.160156 320.109375 241.460938 320.214844 C 242.03125 320.410156 242.464844 321.070312 242.464844 322 C 242.464844 323.664062 241.296875 324.550781 239.570312 324.550781 C 238.941406 324.550781 238.566406 324.339844 238.566406 323.921875 C 238.566406 323.726562 238.789062 322.960938 239.089844 321.820312 Z M 239.570312 320.035156 "/>
<path style=" stroke:none;fill-rule:nonzero;fill:rgb(0%,0%,0%);fill-opacity:1;" d="M 242.636719 311.429688 C 242.382812 311.984375 242.1875 312.195312 241.84375 312.195312 C 241.542969 312.195312 241.332031 312.105469 240.6875 311.773438 C 240.328125 311.59375 239.96875 311.503906 239.636719 311.503906 C 238.886719 311.503906 238.347656 312.046875 238.121094 313.019531 L 238.558594 313.019531 C 238.722656 312.554688 238.976562 312.328125 239.320312 312.328125 C 239.59375 312.328125 239.710938 312.390625 240.28125 312.660156 C 240.898438 312.960938 241.121094 313.019531 241.496094 313.019531 C 242.320312 313.019531 242.757812 312.570312 243.070312 311.429688 Z M 242.636719 311.429688 "/>
<path style=" stroke:none;fill-rule:nonzero;fill:rgb(0%,0%,0%);fill-opacity:1;" d="M 249.601562 325.828125 C 249.53125 325.921875 249.460938 326.011719 249.390625 326.089844 C 249.101562 326.460938 248.921875 326.621094 248.78125 326.621094 C 248.660156 326.621094 248.621094 326.53125 248.621094 326.441406 C 248.621094 326.359375 248.660156 326.191406 248.761719 325.828125 L 249.320312 323.800781 C 249.378906 323.589844 249.421875 323.378906 249.421875 323.199219 C 249.421875 322.839844 249.199219 322.589844 248.769531 322.589844 C 248.128906 322.589844 247.460938 323.191406 246.460938 324.789062 L 247.128906 322.609375 L 247.089844 322.589844 C 246.558594 322.699219 246.28125 322.738281 245.46875 322.898438 L 245.46875 323.058594 C 245.980469 323.070312 246.121094 323.128906 246.121094 323.328125 C 246.121094 323.390625 246.109375 323.449219 246.101562 323.5 L 245.140625 327 L 245.890625 327 C 246.359375 325.421875 246.441406 325.191406 246.890625 324.519531 C 247.519531 323.589844 247.96875 323.101562 248.371094 323.101562 C 248.519531 323.101562 248.609375 323.210938 248.609375 323.390625 C 248.609375 323.511719 248.550781 323.871094 248.46875 324.179688 L 248.03125 325.800781 C 247.890625 326.320312 247.871094 326.449219 247.871094 326.550781 C 247.871094 326.929688 248.089844 327.089844 248.339844 327.089844 C 248.808594 327.089844 249.058594 326.890625 249.738281 325.960938 Z M 249.601562 325.828125 "/>
<path style=" stroke:none;fill-rule:nonzero;fill:rgb(0%,0%,0%);fill-opacity:1;" d="M 257.039062 325.949219 L 256.890625 325.828125 L 256.679688 326.089844 C 256.378906 326.460938 256.199219 326.621094 256.03125 326.621094 C 255.949219 326.621094 255.910156 326.570312 255.910156 326.460938 C 255.910156 326.421875 255.949219 326.238281 256.011719 326.011719 L 256.691406 323.5 C 256.699219 323.449219 256.71875 323.289062 256.71875 323.21875 C 256.71875 322.859375 256.511719 322.589844 256.140625 322.589844 C 255.941406 322.589844 255.75 322.640625 255.511719 322.789062 C 255.019531 323.101562 254.609375 323.601562 253.910156 324.710938 C 254.179688 323.941406 254.308594 323.378906 254.308594 323.191406 C 254.308594 322.828125 254.109375 322.589844 253.710938 322.589844 C 253.101562 322.589844 252.398438 323.25 251.511719 324.699219 L 252.089844 322.609375 L 252.058594 322.589844 L 250.441406 322.898438 L 250.441406 323.058594 L 250.691406 323.058594 C 250.960938 323.058594 251.101562 323.128906 251.101562 323.28125 C 251.101562 323.398438 250.949219 324.230469 250.550781 325.558594 L 250.121094 327 L 250.871094 327 C 251.351562 325.421875 251.488281 325.058594 251.828125 324.539062 C 252.390625 323.691406 252.980469 323.109375 253.320312 323.109375 C 253.449219 323.109375 253.539062 323.199219 253.539062 323.359375 C 253.539062 323.488281 253.300781 324.550781 252.859375 326.070312 L 252.589844 327 L 253.339844 327 C 253.730469 325.460938 253.929688 324.96875 254.421875 324.28125 C 254.921875 323.578125 255.429688 323.109375 255.730469 323.109375 C 255.839844 323.109375 255.929688 323.199219 255.929688 323.320312 C 255.929688 323.371094 255.910156 323.5 255.859375 323.699219 L 255.28125 325.96875 C 255.179688 326.359375 255.148438 326.53125 255.148438 326.628906 C 255.148438 326.929688 255.289062 327.089844 255.550781 327.089844 C 256.019531 327.089844 256.460938 326.761719 256.988281 326.019531 Z M 257.039062 325.949219 "/>
<path style=" stroke:none;fill-rule:nonzero;fill:rgb(0%,0%,0%);fill-opacity:1;" d="M 261.828125 325.808594 C 261.320312 326.480469 261.160156 326.621094 261 326.621094 C 260.929688 326.621094 260.890625 326.558594 260.890625 326.449219 C 260.890625 326.328125 261.027344 325.859375 261.078125 325.671875 L 261.867188 322.679688 L 261.128906 322.679688 C 260.640625 324.019531 260.5 324.398438 260.027344 325.109375 C 259.410156 326.050781 258.949219 326.578125 258.609375 326.578125 C 258.457031 326.578125 258.410156 326.480469 258.410156 326.328125 C 258.410156 326.289062 258.429688 326.199219 258.4375 326.171875 L 259.328125 322.621094 L 259.289062 322.589844 C 258.71875 322.71875 258.359375 322.789062 257.789062 322.859375 L 257.789062 323 C 258.167969 323 258.199219 323.011719 258.289062 323.058594 C 258.347656 323.089844 258.398438 323.171875 258.398438 323.238281 C 258.398438 323.320312 258.339844 323.578125 258.257812 323.910156 L 257.910156 325.300781 C 257.730469 326.03125 257.640625 326.390625 257.640625 326.578125 C 257.640625 326.949219 257.820312 327.109375 258.167969 327.109375 C 258.878906 327.109375 259.378906 326.578125 260.558594 324.640625 C 260.238281 325.71875 260.109375 326.390625 260.109375 326.609375 C 260.109375 326.921875 260.289062 327.089844 260.589844 327.089844 C 261.058594 327.089844 261.320312 326.890625 261.96875 325.898438 Z M 261.828125 325.808594 "/>
<path style=" stroke:none;fill-rule:nonzero;fill:rgb(0%,0%,0%);fill-opacity:1;" d="M 42.570312 236.078125 L 41.128906 236.078125 L 38.460938 240.59375 C 38.535156 239.875 38.730469 238.675781 38.730469 237.746094 C 38.730469 236.695312 38.535156 235.976562 37.769531 235.976562 C 37.019531 235.976562 36.539062 237.101562 36.285156 238.058594 L 36.523438 238.058594 C 36.808594 237.234375 37.214844 236.921875 37.484375 236.921875 C 38.054688 236.921875 38.203125 237.820312 38.203125 238.855469 C 38.203125 239.996094 38.023438 241.148438 37.980469 241.570312 C 37.53125 242.589844 36.523438 244.046875 36.523438 244.839844 C 36.523438 245.335938 36.75 245.589844 37.09375 245.589844 C 38.28125 245.589844 38.386719 243.28125 38.460938 241.914062 Z M 42.570312 236.078125 "/>
<path style=" stroke:none;fill-rule:nonzero;fill:rgb(0%,0%,0%);fill-opacity:1;" d="M 117.449219 313.203125 L 117.449219 313.445312 C 118.394531 313.519531 118.605469 313.625 118.605469 314.058594 C 118.605469 314.285156 118.546875 314.644531 118.441406 315.019531 L 116.625 321.558594 C 116.371094 322.488281 116.203125 322.640625 115.378906 322.761719 L 115.378906 323 L 119.460938 323 C 121.890625 323 123.585938 322.011719 123.585938 320 C 123.585938 318.933594 122.984375 318.140625 121.695312 317.75 L 121.695312 317.734375 C 122.339844 317.601562 122.894531 317.464844 123.359375 317.148438 C 123.898438 316.789062 124.320312 316.265625 124.320312 315.453125 C 124.320312 313.96875 123.285156 313.203125 121.199219 313.203125 Z M 119.21875 317.554688 L 120.164062 314.195312 C 120.316406 313.65625 120.464844 313.65625 121.050781 313.65625 C 122.265625 313.65625 122.804688 314.164062 122.804688 315.273438 C 122.804688 316.761719 121.753906 317.554688 119.789062 317.554688 Z M 119.070312 318.035156 C 120.015625 318.035156 120.660156 318.109375 120.960938 318.214844 C 121.53125 318.410156 121.964844 319.070312 121.964844 320 C 121.964844 321.664062 120.796875 322.550781 119.070312 322.550781 C 118.441406 322.550781 118.066406 322.339844 118.066406 321.921875 C 118.066406 321.726562 118.289062 320.960938 118.589844 319.820312 Z M 119.070312 318.035156 "/>
<path style=" stroke:none;fill-rule:nonzero;fill:rgb(0%,0%,0%);fill-opacity:1;" d="M 129.101562 323.828125 C 129.03125 323.921875 128.960938 324.011719 128.890625 324.089844 C 128.601562 324.460938 128.421875 324.621094 128.28125 324.621094 C 128.160156 324.621094 128.121094 324.53125 128.121094 324.441406 C 128.121094 324.359375 128.160156 324.191406 128.261719 323.828125 L 128.820312 321.800781 C 128.878906 321.589844 128.921875 321.378906 128.921875 321.199219 C 128.921875 320.839844 128.699219 320.589844 128.269531 320.589844 C 127.628906 320.589844 126.960938 321.191406 125.960938 322.789062 L 126.628906 320.609375 L 126.589844 320.589844 C 126.058594 320.699219 125.78125 320.738281 124.96875 320.898438 L 124.96875 321.058594 C 125.480469 321.070312 125.621094 321.128906 125.621094 321.328125 C 125.621094 321.390625 125.609375 321.449219 125.601562 321.5 L 124.640625 325 L 125.390625 325 C 125.859375 323.421875 125.941406 323.191406 126.390625 322.519531 C 127.019531 321.589844 127.46875 321.101562 127.871094 321.101562 C 128.019531 321.101562 128.109375 321.210938 128.109375 321.390625 C 128.109375 321.511719 128.050781 321.871094 127.96875 322.179688 L 127.53125 323.800781 C 127.390625 324.320312 127.371094 324.449219 127.371094 324.550781 C 127.371094 324.929688 127.589844 325.089844 127.839844 325.089844 C 128.308594 325.089844 128.558594 324.890625 129.238281 323.960938 Z M 129.101562 323.828125 "/>
<path style=" stroke:none;fill-rule:nonzero;fill:rgb(0%,0%,0%);fill-opacity:1;" d="M 136.539062 323.949219 L 136.390625 323.828125 L 136.179688 324.089844 C 135.878906 324.460938 135.699219 324.621094 135.53125 324.621094 C 135.449219 324.621094 135.410156 324.570312 135.410156 324.460938 C 135.410156 324.421875 135.449219 324.238281 135.511719 324.011719 L 136.191406 321.5 C 136.199219 321.449219 136.21875 321.289062 136.21875 321.21875 C 136.21875 320.859375 136.011719 320.589844 135.640625 320.589844 C 135.441406 320.589844 135.25 320.640625 135.011719 320.789062 C 134.519531 321.101562 134.109375 321.601562 133.410156 322.710938 C 133.679688 321.941406 133.808594 321.378906 133.808594 321.191406 C 133.808594 320.828125 133.609375 320.589844 133.210938 320.589844 C 132.601562 320.589844 131.898438 321.25 131.011719 322.699219 L 131.589844 320.609375 L 131.558594 320.589844 L 129.941406 320.898438 L 129.941406 321.058594 L 130.191406 321.058594 C 130.460938 321.058594 130.601562 321.128906 130.601562 321.28125 C 130.601562 321.398438 130.449219 322.230469 130.050781 323.558594 L 129.621094 325 L 130.371094 325 C 130.851562 323.421875 130.988281 323.058594 131.328125 322.539062 C 131.890625 321.691406 132.480469 321.109375 132.820312 321.109375 C 132.949219 321.109375 133.039062 321.199219 133.039062 321.359375 C 133.039062 321.488281 132.800781 322.550781 132.359375 324.070312 L 132.089844 325 L 132.839844 325 C 133.230469 323.460938 133.429688 322.96875 133.921875 322.28125 C 134.421875 321.578125 134.929688 321.109375 135.230469 321.109375 C 135.339844 321.109375 135.429688 321.199219 135.429688 321.320312 C 135.429688 321.371094 135.410156 321.5 135.359375 321.699219 L 134.78125 323.96875 C 134.679688 324.359375 134.648438 324.53125 134.648438 324.628906 C 134.648438 324.929688 134.789062 325.089844 135.050781 325.089844 C 135.519531 325.089844 135.960938 324.761719 136.488281 324.019531 Z M 136.539062 323.949219 "/>
<path style=" stroke:none;fill-rule:nonzero;fill:rgb(0%,0%,0%);fill-opacity:1;" d="M 141.367188 323.820312 C 140.828125 324.5 140.707031 324.621094 140.546875 324.621094 C 140.457031 324.621094 140.390625 324.539062 140.390625 324.441406 C 140.390625 324.328125 140.546875 323.710938 140.71875 323.191406 C 141.019531 322.25 141.199219 321.511719 141.199219 321.261719 C 141.199219 320.890625 141.007812 320.589844 140.546875 320.589844 C 139.929688 320.589844 139.148438 321.238281 138.25 322.699219 L 139.457031 318.230469 L 139.390625 318.171875 C 138.808594 318.300781 138.417969 318.371094 137.820312 318.441406 L 137.820312 318.589844 L 138.089844 318.589844 C 138.269531 318.589844 138.5 318.671875 138.5 318.839844 C 138.5 318.980469 138.449219 319.148438 138.367188 319.460938 L 136.910156 325 L 137.660156 325 C 138.058594 323.460938 138.21875 323.109375 138.617188 322.5 C 139.140625 321.710938 139.777344 321.101562 140.140625 321.101562 C 140.367188 321.101562 140.417969 321.199219 140.417969 321.351562 C 140.417969 321.390625 140.390625 321.519531 140.347656 321.679688 L 139.796875 323.75 C 139.667969 324.238281 139.597656 324.550781 139.597656 324.671875 C 139.597656 324.929688 139.769531 325.089844 140.039062 325.089844 C 140.546875 325.089844 140.890625 324.820312 141.5 323.949219 Z M 141.367188 323.820312 "/>
<path style=" stroke:none;fill-rule:nonzero;fill:rgb(0%,0%,0%);fill-opacity:1;" d="M 127.175781 233.203125 L 119.71875 233.203125 L 119.71875 233.445312 C 120.710938 233.535156 120.859375 233.625 120.859375 234.046875 C 120.859375 234.285156 120.816406 234.585938 120.710938 234.960938 L 118.863281 241.589844 C 118.640625 242.371094 118.488281 242.699219 117.621094 242.761719 L 117.621094 243 L 121.386719 243 L 121.386719 242.761719 C 120.5 242.699219 120.230469 242.535156 120.230469 242.175781 C 120.230469 241.949219 120.335938 241.648438 120.441406 241.273438 L 121.324219 238.078125 C 121.878906 238.109375 122.238281 238.125 122.570312 238.125 C 123.273438 238.125 123.695312 238.183594 123.695312 238.785156 C 123.695312 239.023438 123.664062 239.234375 123.574219 239.699219 L 123.828125 239.773438 L 124.96875 236.25 L 124.699219 236.175781 C 124.023438 237.523438 123.980469 237.554688 121.460938 237.585938 L 122.421875 234.179688 C 122.523438 233.789062 122.75 233.699219 123.441406 233.699219 C 126.078125 233.699219 126.425781 233.894531 126.425781 234.988281 C 126.425781 235.078125 126.425781 235.15625 126.378906 235.484375 L 126.695312 235.515625 Z M 127.175781 233.203125 "/>
<path style=" stroke:none;fill-rule:nonzero;fill:rgb(0%,0%,0%);fill-opacity:1;" d="M 131.101562 243.828125 C 131.03125 243.921875 130.960938 244.011719 130.890625 244.089844 C 130.601562 244.460938 130.421875 244.621094 130.28125 244.621094 C 130.160156 244.621094 130.121094 244.53125 130.121094 244.441406 C 130.121094 244.359375 130.160156 244.191406 130.261719 243.828125 L 130.820312 241.800781 C 130.878906 241.589844 130.921875 241.378906 130.921875 241.199219 C 130.921875 240.839844 130.699219 240.589844 130.269531 240.589844 C 129.628906 240.589844 128.960938 241.191406 127.960938 242.789062 L 128.628906 240.609375 L 128.589844 240.589844 C 128.058594 240.699219 127.78125 240.738281 126.96875 240.898438 L 126.96875 241.058594 C 127.480469 241.070312 127.621094 241.128906 127.621094 241.328125 C 127.621094 241.390625 127.609375 241.449219 127.601562 241.5 L 126.640625 245 L 127.390625 245 C 127.859375 243.421875 127.941406 243.191406 128.390625 242.519531 C 129.019531 241.589844 129.46875 241.101562 129.871094 241.101562 C 130.019531 241.101562 130.109375 241.210938 130.109375 241.390625 C 130.109375 241.511719 130.050781 241.871094 129.96875 242.179688 L 129.53125 243.800781 C 129.390625 244.320312 129.371094 244.449219 129.371094 244.550781 C 129.371094 244.929688 129.589844 245.089844 129.839844 245.089844 C 130.308594 245.089844 130.558594 244.890625 131.238281 243.960938 Z M 131.101562 243.828125 "/>
<path style=" stroke:none;fill-rule:nonzero;fill:rgb(0%,0%,0%);fill-opacity:1;" d="M 138.539062 243.949219 L 138.390625 243.828125 L 138.179688 244.089844 C 137.878906 244.460938 137.699219 244.621094 137.53125 244.621094 C 137.449219 244.621094 137.410156 244.570312 137.410156 244.460938 C 137.410156 244.421875 137.449219 244.238281 137.511719 244.011719 L 138.191406 241.5 C 138.199219 241.449219 138.21875 241.289062 138.21875 241.21875 C 138.21875 240.859375 138.011719 240.589844 137.640625 240.589844 C 137.441406 240.589844 137.25 240.640625 137.011719 240.789062 C 136.519531 241.101562 136.109375 241.601562 135.410156 242.710938 C 135.679688 241.941406 135.808594 241.378906 135.808594 241.191406 C 135.808594 240.828125 135.609375 240.589844 135.210938 240.589844 C 134.601562 240.589844 133.898438 241.25 133.011719 242.699219 L 133.589844 240.609375 L 133.558594 240.589844 L 131.941406 240.898438 L 131.941406 241.058594 L 132.191406 241.058594 C 132.460938 241.058594 132.601562 241.128906 132.601562 241.28125 C 132.601562 241.398438 132.449219 242.230469 132.050781 243.558594 L 131.621094 245 L 132.371094 245 C 132.851562 243.421875 132.988281 243.058594 133.328125 242.539062 C 133.890625 241.691406 134.480469 241.109375 134.820312 241.109375 C 134.949219 241.109375 135.039062 241.199219 135.039062 241.359375 C 135.039062 241.488281 134.800781 242.550781 134.359375 244.070312 L 134.089844 245 L 134.839844 245 C 135.230469 243.460938 135.429688 242.96875 135.921875 242.28125 C 136.421875 241.578125 136.929688 241.109375 137.230469 241.109375 C 137.339844 241.109375 137.429688 241.199219 137.429688 241.320312 C 137.429688 241.371094 137.410156 241.5 137.359375 241.699219 L 136.78125 243.96875 C 136.679688 244.359375 136.648438 244.53125 136.648438 244.628906 C 136.648438 244.929688 136.789062 245.089844 137.050781 245.089844 C 137.519531 245.089844 137.960938 244.761719 138.488281 244.019531 Z M 138.539062 243.949219 "/>
<path style=" stroke:none;fill-rule:nonzero;fill:rgb(0%,0%,0%);fill-opacity:1;" d="M 185.535156 400.746094 C 184.753906 401.765625 184.53125 401.960938 184.289062 401.960938 C 184.183594 401.960938 184.125 401.855469 184.125 401.734375 C 184.125 401.585938 184.351562 400.820312 184.410156 400.578125 L 185.59375 396.078125 L 184.441406 396.078125 L 183.945312 397.910156 C 183.691406 398.871094 182.054688 401.675781 181.171875 401.675781 C 180.75 401.675781 180.570312 401.359375 180.570312 400.953125 C 180.570312 400.820312 180.601562 400.683594 180.628906 400.550781 L 181.753906 396.078125 L 180.628906 396.078125 L 178.664062 403.894531 C 178.425781 404.839844 178.214844 405.273438 178.003906 405.574219 L 179.070312 405.574219 C 179.398438 405.183594 179.488281 404.464844 180.074219 402.214844 C 180.148438 402.484375 180.328125 402.636719 180.613281 402.636719 C 181.515625 402.636719 182.339844 401.628906 183.660156 399.289062 L 183.675781 399.289062 L 183.179688 400.851562 C 183.058594 401.210938 182.953125 401.734375 182.953125 401.988281 C 182.953125 402.410156 183.269531 402.664062 183.691406 402.664062 C 184.363281 402.664062 184.816406 402.320312 185.746094 400.878906 Z M 185.535156 400.746094 "/>
<path style=" stroke:none;fill-rule:nonzero;fill:rgb(0%,0%,0%);fill-opacity:1;" d="M 187.621094 404.613281 C 188.65625 404.121094 189.300781 403.175781 189.300781 402.273438 C 189.300781 401.496094 188.773438 400.96875 188.101562 400.96875 C 187.558594 400.96875 187.199219 401.316406 187.199219 401.824219 C 187.199219 402.335938 187.515625 402.589844 188.070312 402.589844 C 188.234375 402.589844 188.386719 402.53125 188.503906 402.53125 C 188.625 402.53125 188.714844 402.621094 188.714844 402.726562 C 188.714844 403.21875 188.296875 403.773438 187.46875 404.328125 Z M 187.621094 404.613281 "/>
<path style=" stroke:none;fill-rule:nonzero;fill:rgb(0%,0%,0%);fill-opacity:1;" d="M 201.089844 396.078125 L 198.179688 396.078125 C 195.34375 396.078125 193.53125 398.523438 193.53125 400.550781 C 193.53125 401.855469 194.308594 402.664062 195.71875 402.664062 C 197.820312 402.664062 199.710938 400.894531 199.710938 399.246094 C 199.710938 398.121094 198.871094 398.136719 198.269531 397.191406 L 200.820312 397.191406 Z M 198.449219 399.183594 C 198.449219 400.386719 197.398438 402.351562 195.960938 402.351562 C 195.253906 402.351562 194.789062 401.898438 194.789062 401 C 194.789062 398.886719 196.546875 397.191406 197.578125 397.191406 C 198.058594 397.476562 198.449219 398.226562 198.449219 399.183594 Z M 198.449219 399.183594 "/>
</g>
</svg>
